<?xml version="1.0" encoding="UTF-8" standalone="no"?><!DOCTYPE svg PUBLIC "-//W3C//DTD SVG 1.1//EN" "http://www.w3.org/Graphics/SVG/1.1/DTD/svg11.dtd"><svg width="500px" height="500px" version="1.1" xmlns="http://www.w3.org/2000/svg" xmlns:xlink="http://www.w3.org/1999/xlink" xml:space="preserve" xmlns:serif="http://www.serif.com/" style="fill-rule:evenodd;clip-rule:evenodd;stroke-linejoin:round;stroke-miterlimit:2;"><g transform="matrix(1.49837,0,0,1.49837,-165.484,-148.061)"><path d="M271,246C282.59,246 292,255.41 292,267C292,278.59 282.59,288 271,288C259.41,288 250,278.59 250,267C250,255.41 259.41,246 271,246ZM273.953,142.516C273.953,139.566 275.218,136.758 277.428,134.805C279.637,132.851 282.579,131.939 285.506,132.3C351.044,140.391 402.163,197.5 402.163,267C402.163,336.5 351.044,393.609 285.504,401.681C282.582,402.042 279.645,401.132 277.44,399.182C275.234,397.231 273.971,394.429 273.971,391.484C273.953,390.216 273.953,388.932 273.953,387.688C273.953,382.505 277.806,378.13 282.948,377.477C336.41,370.693 377.847,323.781 377.847,267C377.847,210.219 336.41,163.307 282.95,156.505C277.818,155.853 273.971,151.486 273.971,146.312C273.953,145.068 273.953,143.784 273.953,142.516ZM273.953,197.763C273.953,194.597 275.409,191.608 277.903,189.657C280.396,187.706 283.648,187.011 286.721,187.773C321.772,196.393 348.005,228.502 348.005,267C348.005,305.498 321.772,337.607 286.721,346.225C283.649,346.987 280.397,346.292 277.904,344.342C275.411,342.391 273.954,339.402 273.954,336.237C273.953,334.934 273.953,333.629 273.953,332.38C273.953,327.708 277.1,323.622 281.617,322.429C305.787,316.155 323.689,293.703 323.689,267C323.689,240.297 305.787,217.845 281.618,211.565C277.104,210.373 273.959,206.289 273.959,201.62C273.953,200.371 273.953,199.066 273.953,197.763ZM236.374,348.925C236.374,353.167 233.772,356.973 229.821,358.514C225.87,360.055 221.378,359.015 218.506,355.894C209.947,346.59 200.551,336.376 195.837,331.252C193.888,329.133 191.141,327.928 188.262,327.928C180.887,327.928 166.077,327.928 156.035,327.928C153.305,327.928 150.687,326.843 148.757,324.913C146.827,322.983 145.742,320.365 145.742,317.635C145.742,294.648 145.742,239.352 145.742,216.365C145.742,213.635 146.827,211.017 148.757,209.087C150.687,207.157 153.305,206.072 156.035,206.072C166.077,206.072 180.887,206.072 188.262,206.072C191.141,206.072 193.888,204.867 195.837,202.748C200.551,197.624 209.947,187.41 218.506,178.106C221.378,174.985 225.87,173.945 229.821,175.486C233.772,177.027 236.374,180.833 236.374,185.075C236.374,226.732 236.374,307.268 236.374,348.925Z" style="fill:white;"/></g><path d="M132,250L211,250L211,332L173,297L132,297L132,250Z" style="fill:none;"/></svg>